<?xml version="1.0" encoding="UTF-8"?>
<svg id="_레이어_1" data-name="레이어 1" xmlns="http://www.w3.org/2000/svg" viewBox="0 0 1080 1080">
  <defs>
    <style>
      .cls-1 {
        fill: none;
      }

      .cls-2 {
        fill: #ff3b94;
      }

      .cls-3 {
        fill-rule: evenodd;
      }
    </style>
  </defs>
  <g>
    <polygon class="cls-3" points="398.19 388.24 319.23 392.13 322.13 499.53 286.63 508.84 273.96 564.21 314.73 556.24 331.35 723.75 434.53 727.34 409.69 561.58 398.19 388.24"/>
    <path class="cls-3" d="M199.65,495.75l62.25-7.19,9.89-42.74-137.14-1.45-9.15,234.07,29.14-4.12c-.1,3.51-.28,7.02-.5,10.54-.65,10.44-1.79,20.87.67,31.24,1.51,3.58,4.05,6.17,7.48,7.94,4.36.31,8.77.92,12.44-2.36.49-.69.97-1.38,1.46-2.07.54-1.78,1.08-3.57,1.62-5.35.43-8.35.86-16.69,1.29-25.04-.39-3.28-.38-6.55.43-9.78-.46-1.47-.24-2.91.18-4.35.04-1.45.08-2.89.13-4.34l85.12-12.02,7.86-81.14-69.66,4.15-3.51-86.01Z"/>
    <polygon class="cls-3" points="558.77 502.56 614.12 507.44 651.18 459.12 645.92 378.84 480.53 382.63 471.7 430.47 589.24 428.19 591.03 446.25 463.03 444.38 461.74 475.9 574.66 476.23 558.77 502.56"/>
    <path class="cls-3" d="M426.22,558.05l86.5,8.03-16.5,80.79,46.75,5.24c-.23,6.15-.19,12.28.92,18.39,1.03,3.19,2.78,5.52,5.13,7.1,2.13.2,4.27.52,6.24-.35.11,3.23.39,6.45.98,9.67,1.03,3.19,2.78,5.52,5.13,7.1,2.99.28,6.02.83,8.54-2.1.33-.62.67-1.23,1-1.85.37-1.59.74-3.19,1.11-4.78.3-7.46.59-14.91.89-22.37-.26-2.93,0-5.68,0-8.91v-.03s3.11-64.81,3.11-64.81l95.23,8.09.98-67.9-242.51-21.92-3.52,50.61Z"/>
    <path class="cls-3" d="M697.99,545.12l-5.77,72.56,90.92,8.56-8.18,85.24,34.18-5.27c2.31,14.22,4.53,28.54,4.03,37.71-.24,4.32-.59,9.44.96,13.35,2.51,6.46,8.26,4.12,9.47-1.58,1.23-5.13.24-10.76-.22-15.99-.68-6.43-.47-5.11-.78-11.59-.04-3.98.06-10.97,4.71-12.17,1.03-.27,2.13-.02,3.08.46,6.25,3.15,6.81,3.84,6.56,10.8.1,6.69-.92,15.63,4.93,19.43,4.28,2.33,8.04-1.55,8.81-6.05,1.34-8.39-1.62-17.19-2.1-25.59-1.73-11.99,7.44-8.83,3.76-29.59h0l2.55-68.42,94.6,1.01,5.01-67.42-256.51-5.44Z"/>
    <polygon class="cls-3" points="853.14 541.41 908.8 541.41 931.74 483.65 932.14 401.74 769.56 418.44 759.49 451.19 889.5 451.13 885.26 468.08 745.73 469.14 740.77 509.92 863.51 505.8 853.14 541.41"/>
  </g>
  <g>
    <path class="cls-1" d="M403.13,726.25c-6.85-8.5-13.68-17-20.48-25.51-19.88-25.84-40.5-51.16-61.16-76.38l9.86,99.4,71.78,2.49Z"/>
    <path class="cls-1" d="M837.69,530.08l1.59-5.46-4.66.16c-1.06,1.74-2.14,3.46-3.24,5.17l6.31.13Z"/>
    <g>
      <path class="cls-2" d="M740.77,527.92c-5.04,0-9.86-2.11-13.27-5.84-3.55-3.88-5.23-9.11-4.6-14.33l4.96-40.77c.92-7.58,6.48-13.59,13.63-15.32-.05-1.92.21-3.86.79-5.75l10.07-32.75c2.12-6.91,8.18-11.88,15.36-12.61l90.57-9.31c-.1-.62-.19-1.24-.3-1.86l-.07-.39c-6.14-29.47-17.87-58.12-36.97-80.87-16.9-19.26-37.69-35.72-61.47-44.36-16.84-6.3-37.35-6.19-54.66-6.6-3.4-.21-7.62-.41-6.15-3.2,5.7-9.2-1.85-10.5-11.55-11.59-43.84-2.54-85.89,21.2-115.75,54.41-5.75,5.8-14.33,14.68-21.47,13.15-7.39-.67-16.25-15.08-21.87-23.26-7.78-11.54-17.32-22.46-28.04-32.17-12.54-11.45-26.57-21.46-41.51-29.32-40.02-21.55-88.64-25.06-131.36-10.65-41.88,14.61-75.1,49.2-95.41,89.38-20.11,38.96-26.45,81.67-21.51,123.27l61.77.65c5.45.06,10.59,2.58,13.96,6.87,3.37,4.29,4.62,9.87,3.39,15.19l-9.82,42.43c.82-.36,1.68-.66,2.56-.89l21.69-5.69-2.52-93.12c-.26-9.78,7.33-17.98,17.11-18.46l78.96-3.9c.3-.01.6-.02.9-.02,9.42,0,17.32,7.31,17.95,16.81l6.88,103.71c2.12-.85,4.39-1.31,6.71-1.31.54,0,1.08.02,1.62.07l21.33,1.93c-1.44-.84-2.78-1.87-3.95-3.09-3.38-3.53-5.18-8.29-4.98-13.18l1.28-31.52c.26-6.28,3.7-11.69,8.73-14.71.05-.58.13-1.16.23-1.74l8.82-47.84c1.55-8.39,8.76-14.53,17.29-14.73l165.39-3.79c.14,0,.28,0,.42,0,9.46,0,17.33,7.34,17.95,16.82l5.26,80.28c.29,4.36-1.02,8.67-3.68,12.13l-29.12,37.96,37.52,3.39c9.13.83,16.12,8.37,16.35,17.46,2.36-1.13,4.99-1.78,7.76-1.78.13,0,.26,0,.39,0l133.01,2.82c1.1-1.71,2.18-3.43,3.24-5.17l-93.25,3.13c-.2,0-.4.01-.6.01Z"/>
      <path class="cls-2" d="M674.28,616.25l.1-1.27c-1.02.18-2.06.28-3.11.28-.51,0-1.02-.02-1.52-.06l-76.63-6.51-2.19,45.43c0,1.34-.04,2.54-.07,3.61-.04,1.46-.08,2.72,0,3.57.07.77.09,1.55.06,2.33l-.39,9.75-.5,12.62c-.04,1.13-.2,2.25-.45,3.36l-1.11,4.78c-.37,1.57-.94,3.09-1.71,4.5l-.24.45-.76,1.39c-.61,1.13-1.35,2.19-2.19,3.17-3.37,3.92-9.41,8.59-19.02,8.59-1.72,0-3.2-.15-4.28-.25l-.54-.05c-3-.28-5.88-1.3-8.38-2.98-5.69-3.82-9.89-9.45-12.15-16.28-.07-.04-.13-.09-.2-.13-5.75-3.86-9.98-9.57-12.22-16.49-.24-.76-.44-1.53-.58-2.31-.34-1.86-.6-3.69-.79-5.48l-31.17-3.49c-5.02-.56-9.58-3.21-12.55-7.3-2.97-4.09-4.09-9.24-3.08-14.19l12.48-61.12-60.94-5.66,22.21,148.18c.79,5.29-.81,10.66-4.37,14.65-3.42,3.84-8.31,6.02-13.43,6.02-.21,0-.42,0-.63-.01l-15.83-.55c15.63,19.36,31.28,38.71,46.76,58.07,15.08,19.19,30.09,37.89,46.41,55.91,24.62,27.55,38.4,14.48,56.81-10.63,19.59-24.99,40.5-47.73,61.12-71.59,38.4-45.4,78.07-89.96,116.25-135.77l-54.9-5.17c-9.8-.92-17.03-9.54-16.26-19.35Z"/>
    </g>
  </g>
</svg>